HIERARCHY
ROOT Hips
{
     OFFSET 23.93520 96.61120 76.00990
     CHANNELS 6 Xposition Yposition Zposition Zrotation Xrotation Yrotation
     JOINT Spine
     {
          OFFSET -0.00000 11.89050 -0.00000
          CHANNELS 3 Zrotation Xrotation Yrotation
          JOINT Spine1
          {
               OFFSET 0.00000 25.65740 0.12766
               CHANNELS 3 Zrotation Xrotation Yrotation
               JOINT HEad
               {
                    OFFSET 0.00000 8.73416 0.01134
                    CHANNELS 3 Zrotation Xrotation Yrotation
                    End Site
                    {
                         OFFSET -0.29000 12.77420 2.51395
                    }
               }
               JOINT LeftShoulder1
               {
                    OFFSET 8.99000 -0.36225 -0.22000
                    CHANNELS 3 Zrotation Xrotation Yrotation
                    JOINT LeftArm
                    {
                         OFFSET 10.28270 -0.00338 0.32212
                         CHANNELS 3 Zrotation Xrotation Yrotation
                         JOINT LeftForeArm
                         {
                              OFFSET 32.76690 0.09914 -1.42434
                              CHANNELS 3 Zrotation Xrotation Yrotation
                              JOINT LeftHand
                              {
                                   OFFSET 27.56430 0.08536 1.02216
                                   CHANNELS 3 Zrotation Xrotation Yrotation
                                   End Site
                                   {
                                        OFFSET 16.74430 -0.60000 1.50291
                                   }
                              }
                         }
                    }
               }
               JOINT RightShoulder
               {
                    OFFSET -8.99000 -0.36225 -0.22000
                    CHANNELS 3 Zrotation Xrotation Yrotation
                    JOINT RightArm
                    {
                         OFFSET -10.28270 -0.00338 0.32212
                         CHANNELS 3 Zrotation Xrotation Yrotation
                         JOINT RightForeArm
                         {
                              OFFSET -32.89710 0.09914 -1.42434
                              CHANNELS 3 Zrotation Xrotation Yrotation
                              JOINT RightHand
                              {
                                   OFFSET -27.49210 0.08536 1.02216
                                   CHANNELS 3 Zrotation Xrotation Yrotation
                                   End Site
                                   {
                                        OFFSET -16.63120 -0.60000 1.50291
                                   }
                              }
                         }
                    }
               }
          }
     }
     JOINT LeftUpLeg
     {
          OFFSET 8.94580 -8.66707 0.10165
          CHANNELS 3 Zrotation Xrotation Yrotation
          JOINT LeftLeg
          {
               OFFSET 0.00000 -44.42270 1.37270
               CHANNELS 3 Zrotation Xrotation Yrotation
               JOINT LeftFoot
               {
                    OFFSET -0.25355 -42.09240 -1.46059
                    CHANNELS 3 Zrotation Xrotation Yrotation
                    JOINT LeftToes
                    {
                         OFFSET -0.04000 -4.41509 8.49910
                         CHANNELS 3 Zrotation Xrotation Yrotation
                         End Site
                         {
                              OFFSET 0.08000 -0.04745 9.77979
                         }
                    }
               }
          }
     }
     JOINT RightUpLeg
     {
          OFFSET -8.94580 -8.66707 0.10165
          CHANNELS 3 Zrotation Xrotation Yrotation
          JOINT RightLeg
          {
               OFFSET -0.00000 -44.42270 1.37270
               CHANNELS 3 Zrotation Xrotation Yrotation
               JOINT RightFoot
               {
                    OFFSET 0.25355 -42.09240 -1.46059
                    CHANNELS 3 Zrotation Xrotation Yrotation
                    JOINT RightToes
                    {
                         OFFSET 0.04000 -4.41509 8.49910
                         CHANNELS 3 Zrotation Xrotation Yrotation
                         End Site
                         {
                              OFFSET -0.08000 -0.13745 9.77979
                         }
                    }
               }
          }
     }
}
MOTION
Frames: 15
Frame Time: 0.01667
16.28850 102.85000 88.40790 -2.30000 -2.87442 -32.15290 1.15201 4.38244 0.13489 1.94562 9.01908 1.02014 -0.04512 -12.94960 6.21872 -0.00000 -0.00000 0.00000 -92.63070 -32.47480 -98.73550 -25.89610 16.08540 -67.94750 11.94580 7.96647 -15.37760 3.78595 0.45564 2.33132 86.84920 -0.17432 90.33740 30.87710 13.64710 59.43070 -12.53710 6.70189 26.19290 0.21645 -6.64863 -14.47660 -6.35385 14.71970 25.13940 -6.73911 -17.21600 -0.48563 -12.06540 24.70080 16.28360 -14.77790 -1.08071 -25.47180 -9.67040 35.52370 4.12329 8.94146 -13.74870 0.27172 0.76143 20.88270 -6.74447 
16.30060 102.83000 88.28000 -2.27656 -3.00904 -32.99690 1.26776 4.23641 0.15225 2.04797 8.79807 1.15870 -0.50687 -12.07550 6.78658 -0.00000 -0.00000 0.00000 -93.08630 -33.10720 -99.22800 -25.84180 15.44070 -67.87190 12.19910 7.85998 -15.98680 3.49206 0.45382 2.45026 85.56060 0.48402 90.33000 30.92810 12.68020 59.09950 -12.55210 6.62814 26.82160 0.23296 -6.69039 -14.40890 -6.53616 14.98420 26.00810 -7.37398 -17.37740 -0.54977 -12.07580 24.88460 16.16580 -15.27380 -0.31917 -24.36930 -9.45992 36.68530 4.12219 8.17778 -12.15650 0.12444 0.87292 20.04800 -7.05799 
16.27860 102.78400 88.11210 -2.17376 -3.13590 -33.71840 1.33220 4.07819 0.18008 2.13334 8.53643 1.28920 -0.92556 -11.28510 7.35554 -0.00000 -0.00000 0.00000 -93.28470 -33.55160 -99.56390 -25.94810 14.48020 -67.75780 12.46490 7.75180 -16.56220 3.26991 0.45752 2.61618 84.55120 0.95763 90.28430 30.87620 11.93900 58.79780 -12.57820 6.56617 27.31280 0.18726 -6.82187 -14.37170 -6.70607 15.27490 26.65730 -7.53049 -17.33770 -0.56093 -11.95540 24.64700 16.07670 -15.80250 0.64042 -23.38440 -8.88724 37.15600 3.72567 7.91187 -10.48080 0.00699 0.97838 19.14000 -7.36346 
16.22520 102.70300 87.89140 -1.98074 -3.27551 -34.37530 1.30735 3.94311 0.24166 2.18164 8.29154 1.43851 -1.33081 -10.64640 7.90233 -0.00000 -0.00000 0.00000 -93.38430 -33.83530 -99.84740 -26.17060 13.42240 -67.61520 12.71760 7.65159 -17.05960 3.09901 0.46665 2.83863 83.79660 1.29168 90.23590 30.79610 11.35690 58.52990 -12.63980 6.49362 27.80320 0.05196 -7.04012 -14.30990 -6.83274 15.60800 27.08540 -7.20654 -17.09000 -0.51819 -11.69550 23.96090 16.01560 -16.38430 1.79669 -22.47640 -7.96011 36.87320 2.97095 8.42163 -9.07710 -0.07571 1.07819 18.40440 -7.67063 
16.14180 102.58300 87.60690 -1.69859 -3.44671 -35.03240 1.15351 3.85827 0.35879 2.16874 8.10712 1.63312 -1.73992 -10.17170 8.39745 -0.00000 -0.00000 0.00000 -93.52150 -34.02360 -100.18400 -26.29090 12.55880 -67.46620 12.96230 7.55871 -17.48260 2.99302 0.48066 3.10112 83.24200 1.56328 90.20830 30.77400 10.81910 58.28750 -12.68420 6.41175 28.41420 -0.16833 -7.34610 -14.19210 -6.92251 16.01350 27.42040 -6.68530 -16.74910 -0.45565 -11.36420 23.05510 15.96050 -17.01940 3.14204 -21.57550 -6.71874 35.79850 1.96097 9.81532 -8.28668 -0.12156 1.16848 17.99060 -7.96506 
16.02770 102.42700 87.25040 -1.34061 -3.65582 -35.73830 0.86323 3.82587 0.54341 2.08844 7.98624 1.89312 -2.11117 -9.84198 8.84775 -0.00000 -0.00000 0.00000 -93.72520 -34.20090 -100.61300 -26.16560 12.02550 -67.31740 13.21530 7.46299 -17.89850 2.95508 0.49799 3.37384 82.85670 1.84831 90.19930 30.85270 10.25540 58.06310 -12.65400 6.33469 29.17460 -0.43372 -7.73812 -14.01420 -7.01533 16.50020 27.83370 -6.31472 -16.46800 -0.41121 -11.06540 22.23750 15.90950 -17.67280 4.63655 -20.65450 -5.25886 33.94980 0.87090 11.79040 -8.20640 -0.11840 1.24303 17.67310 -8.21378 
15.88380 102.25000 86.81990 -0.93446 -3.88976 -36.51370 0.48803 3.82685 0.79004 1.95902 7.90393 2.22981 -2.39279 -9.62618 9.29879 -0.00000 -0.00000 0.00000 -94.00320 -34.44070 -101.12400 -25.83490 11.83010 -67.20000 13.50380 7.35377 -18.35190 2.95352 0.51667 3.64364 82.63950 2.17610 90.20410 31.02630 9.67334 57.86040 -12.54310 6.27531 30.00070 -0.68829 -8.19563 -13.76650 -7.13404 17.02530 28.39740 -6.18345 -16.25250 -0.39017 -10.80430 21.57830 15.81900 -18.27370 6.17571 -19.77760 -3.75077 31.48180 -0.07602 13.66760 -8.64851 -0.05867 1.28601 16.99910 -8.35424 
15.71750 102.06600 86.31850 -0.51972 -4.11538 -37.35260 0.11283 3.83900 1.07826 1.80744 7.83756 2.64356 -2.57937 -9.47788 9.79720 -0.00000 -0.00000 0.00000 -94.44770 -34.77760 -101.72500 -25.47060 12.01380 -67.17690 13.87510 7.22531 -18.80270 2.92939 0.53474 3.92108 82.61000 2.51508 90.23130 31.29290 9.14818 57.70770 -12.41680 6.23376 30.72340 -0.87323 -8.69851 -13.45100 -7.28043 17.53360 29.08280 -6.12009 -15.97020 -0.37146 -10.48160 20.90650 15.58620 -18.74100 7.59113 -19.08370 -2.39643 28.73600 -0.73958 14.85310 -9.35216 0.03992 1.27274 15.74920 -8.29265 
15.54330 101.88800 85.75240 -0.13928 -4.28281 -38.22740 -0.18890 3.84857 1.38288 1.65990 7.77803 3.12168 -2.68727 -9.35815 10.38120 -0.00000 -0.00000 0.00000 -95.19870 -35.20930 -102.44900 -25.28570 12.66380 -67.28400 14.37560 7.07622 -19.17480 2.82671 0.55031 4.22381 82.78090 2.80586 90.29070 31.66540 8.77377 57.64340 -12.37410 6.19524 31.18960 -0.92782 -9.26086 -13.11110 -7.46831 18.01570 29.85060 -5.90961 -15.50040 -0.33372 -9.99588 20.01250 15.12550 -19.00540 8.69518 -18.70750 -1.34286 26.15460 -1.15245 15.20670 -10.15330 0.14834 1.19054 14.10640 -7.95698 
15.37680 101.72000 85.12800 0.17379 -4.33963 -39.08320 -0.36690 3.85024 1.67878 1.54349 7.72523 3.63763 -2.72996 -9.27259 11.06740 -0.00000 -0.00000 0.00000 -96.29740 -35.69310 -103.31800 -25.38630 13.77440 -67.50280 15.00630 6.91001 -19.43710 2.61191 0.55984 4.53740 83.12310 3.02321 90.38590 32.11920 8.58985 57.67580 -12.46910 6.14217 31.38860 -0.79240 -9.92935 -12.83510 -7.74396 18.50160 30.71880 -5.45314 -14.78460 -0.27110 -9.28305 18.75530 14.36870 -19.01760 9.34294 -18.72030 -0.65155 24.11420 -1.41722 14.94160 -10.98550 0.24771 1.05928 12.46000 -7.38613 
15.23210 101.56400 84.45030 0.40488 -4.25536 -39.84000 -0.39562 3.84626 1.94393 1.48473 7.68673 4.15499 -2.72917 -9.27340 11.80270 -0.00000 -0.00000 0.00000 -97.61600 -36.14760 -104.30600 -25.71010 15.16750 -67.78750 15.71090 6.73265 -19.64020 2.25623 0.55703 4.80460 83.56670 3.19122 90.52720 32.56750 8.55379 57.76790 -12.68480 6.06303 31.46890 -0.42237 -10.76010 -12.72270 -8.17673 19.03720 31.75720 -4.80986 -13.78430 -0.19330 -8.29726 17.05950 13.20920 -18.76010 9.48684 -19.11140 -0.32833 22.79820 -1.57105 14.34240 -11.80410 0.32924 0.91745 11.08170 -6.72201 
15.12060 101.41600 83.72460 0.55419 -4.03663 -40.42290 -0.29170 3.84865 2.16263 1.49949 7.68079 4.62963 -2.72055 -9.41929 12.46530 -0.00000 -0.00000 0.00000 -98.95510 -36.50440 -105.35500 -26.13610 16.60700 -68.08870 16.43380 6.54210 -19.88680 1.73784 0.53769 4.98553 84.02800 3.32910 90.74930 32.90420 8.58081 57.86690 -12.97000 5.95343 31.61190 0.19195 -11.80440 -12.81420 -8.80804 19.70130 32.97230 -4.15736 -12.46020 -0.11674 -7.04099 14.89730 11.58450 -18.26040 9.20209 -19.77940 -0.34056 22.15980 -1.58876 13.66660 -12.56340 0.39188 0.79123 10.01060 -6.08896 
15.04710 101.27200 82.95590 0.63179 -3.72627 -40.77340 -0.12154 3.87567 2.31998 1.58014 7.73104 5.00494 -2.75844 -9.73193 12.94160 -0.00000 -0.00000 0.00000 -100.18400 -36.75400 -106.43300 -26.59980 17.96420 -68.36260 17.16900 6.32870 -20.24270 1.07840 0.50477 5.10328 84.44680 3.40728 91.11050 33.09540 8.59642 57.93990 -13.26340 5.82611 31.87200 1.00952 -13.10190 -13.06370 -9.60302 20.62410 34.18010 -3.76630 -10.82920 -0.05547 -5.63508 12.37720 9.62337 -17.59590 8.66560 -20.55530 -0.59221 21.99000 -1.46745 13.15380 -13.26430 0.44730 0.68457 9.20404 -5.52569 
15.00360 101.12700 82.14850 0.65679 -3.40007 -40.84490 0.02608 3.94413 2.39886 1.69093 7.85794 5.22342 -2.90912 -10.18770 13.17510 -0.00000 -0.00000 0.00000 -101.27400 -36.91110 -107.55000 -27.09660 19.23390 -68.58440 17.92470 6.09196 -20.68340 0.35199 0.46486 5.18835 84.80670 3.38486 91.66380 33.21020 8.55411 57.97840 -13.49630 5.71370 32.16080 1.93105 -14.65130 -13.37930 -10.44050 21.93870 35.00080 -3.94536 -9.01648 -0.00827 -4.29964 9.85532 7.60292 -16.88530 8.09456 -21.27440 -0.91000 22.05420 -1.28900 12.93640 -13.95220 0.51170 0.58565 8.59973 -4.99245 
14.97010 100.98300 81.30860 0.65194 -3.14710 -40.62470 0.09358 4.06141 2.39092 1.78201 8.07057 5.26107 -3.19034 -10.72540 13.16890 -0.00000 -0.00000 0.00000 -102.24800 -36.95780 -108.71000 -27.62170 20.44660 -68.75680 18.67030 5.84869 -21.13650 -0.33796 0.42345 5.20714 85.09880 3.28071 92.41370 33.32630 8.42791 57.97720 -13.61110 5.64707 32.38880 2.82566 -16.35890 -13.65160 -11.13120 23.64700 34.98380 -4.79917 -7.16815 0.04841 -3.18995 7.73809 5.69615 -16.24910 7.66038 -21.83740 -1.10718 22.20820 -1.21361 12.97480 -14.67970 0.59398 0.47607 8.14242 -4.40826 
